<svg xmlns="http://www.w3.org/2000/svg" fill="none" viewBox="0 0 20 20" role="img" aria-label="Cohere">
  <path fill="#355146" fill-rule="evenodd" d="M6.32 11.908c.525 0 1.57-.03 3.013-.639 1.682-.71 5.029-2 7.443-3.323 1.689-.926 2.429-2.151 2.429-3.801C19.205 1.856 17.395 0 15.162 0H5.807C2.6 0 0 2.666 0 5.954s2.434 5.954 6.32 5.954Z"/>
  <path fill="#D18EE2" fill-rule="evenodd" d="M7.902 16.01c0-1.611.947-3.064 2.399-3.682l2.946-1.254c2.98-1.268 6.26.977 6.26 4.286 0 2.563-2.027 4.64-4.527 4.64h-3.19c-2.147-.001-3.888-1.787-3.888-3.99Z"/>
  <path fill="#FF7759" d="M3.348 12.691A3.39 3.39 0 0 0 0 16.124v.444A3.39 3.39 0 0 0 3.348 20a3.39 3.39 0 0 0 3.347-3.432v-.444a3.39 3.39 0 0 0-3.347-3.433Z"/>
</svg>
